<svg id="e1f15ea7-6e8a-4404-b449-490159397ed9" data-name="Layer 1" xmlns="http://www.w3.org/2000/svg" width="860"
    height="656.39618" viewBox="0 0 860 656.39618">
    <ellipse cx="676.71991" cy="642.41719" rx="183.28009" ry="13.97899" fill="#e6e6e6" />
    <path
        d="M177.5,123.80191a4.50491,4.50491,0,0,0-4.5,4.5v94a4.50492,4.50492,0,0,0,4.5,4.5h365a4.50492,4.50492,0,0,0,4.5-4.5v-94a4.50491,4.50491,0,0,0-4.5-4.5Z"
        transform="translate(-170 -121.80191)" fill="#fe8b4c" />
    <path
        d="M542.5,482.80191h-365a7.5082,7.5082,0,0,1-7.5-7.5v-346a7.5082,7.5082,0,0,1,7.5-7.5h365a7.5082,7.5082,0,0,1,7.5,7.5v346A7.5082,7.5082,0,0,1,542.5,482.80191Zm-365-358a4.50491,4.50491,0,0,0-4.5,4.5v346a4.50492,4.50492,0,0,0,4.5,4.5h365a4.50492,4.50492,0,0,0,4.5-4.5v-346a4.50491,4.50491,0,0,0-4.5-4.5Z"
        transform="translate(-170 -121.80191)" fill="#e6e6e6" />
    <path
        d="M442.84546,266.1175h-109.499v2h109.499a20.32666,20.32666,0,0,1,0,40.65332H277.15454a20.32666,20.32666,0,0,1,0-40.65332h6.1919v-2h-6.1919a22.32666,22.32666,0,0,0,0,44.65332H442.84546a22.32666,22.32666,0,0,0,0-44.65332Z"
        transform="translate(-170 -121.80191)" fill="#e6e6e6" />
    <path
        d="M442.84546,335.1175h-109.499v2h109.499a20.32666,20.32666,0,0,1,0,40.65332H277.15454a20.32666,20.32666,0,0,1,0-40.65332h6.1919v-2h-6.1919a22.32666,22.32666,0,0,0,0,44.65332H442.84546a22.32666,22.32666,0,0,0,0-44.65332Z"
        transform="translate(-170 -121.80191)" fill="#e6e6e6" />
    <path
        d="M442.84546,404.1175h-109.499v2h109.499a20.32666,20.32666,0,0,1,0,40.65332H277.15454a20.32666,20.32666,0,0,1,0-40.65332h6.1919v-2h-6.1919a22.32666,22.32666,0,0,0,0,44.65332H442.84546a22.32666,22.32666,0,0,0,0-44.65332Z"
        transform="translate(-170 -121.80191)" fill="#e6e6e6" />
    <path id="acc391cf-813c-49e7-be65-01540edad8b8" data-name="Path 40"
        d="M295.70595,260.83383a5.94683,5.94683,0,0,0,0,11.89205h26.08572a5.94683,5.94683,0,0,0,.19525-11.89205q-.09762-.00166-.19525,0Z"
        transform="translate(-170 -121.80191)" fill="#3f3d56" />
    <path id="ef9a6c3b-1f41-463b-b3ce-7f5769a537e3" data-name="Path 40"
        d="M295.70595,330.83383a5.94683,5.94683,0,0,0,0,11.89205h26.08572a5.94683,5.94683,0,1,0,.19525-11.89205q-.09762-.00166-.19525,0Z"
        transform="translate(-170 -121.80191)" fill="#3f3d56" />
    <path id="b7a5631c-50fc-41b4-a972-37911a435142" data-name="Path 40"
        d="M295.70595,398.83383a5.94683,5.94683,0,0,0,0,11.89205h26.08572a5.94683,5.94683,0,0,0,.19525-11.89205q-.09762-.00166-.19525,0Z"
        transform="translate(-170 -121.80191)" fill="#3f3d56" />
    <path id="a540500a-d6bf-4ebb-bef8-360ac9c7e794" data-name="Path 40"
        d="M285.35951,282.49814a5.94683,5.94683,0,0,0,0,11.89205H434.44524a5.94683,5.94683,0,0,0,.19525-11.89205q-.09763-.00165-.19525,0Z"
        transform="translate(-170 -121.80191)" fill="#e6e6e6" />
    <path id="ed968ae7-c8bd-4060-af59-b97477d9b664" data-name="Path 40"
        d="M285.35951,351.49814a5.94683,5.94683,0,0,0,0,11.89205H434.44524a5.94683,5.94683,0,0,0,.19525-11.89205q-.09763-.00165-.19525,0Z"
        transform="translate(-170 -121.80191)" fill="#e6e6e6" />
    <path id="e76d7104-fe22-4484-9b80-fc40f6ed029b" data-name="Path 40"
        d="M285.35951,420.49814a5.94683,5.94683,0,0,0,0,11.89205H434.44524a5.94683,5.94683,0,1,0,.19525-11.89205q-.09763-.00165-.19525,0Z"
        transform="translate(-170 -121.80191)" fill="#e6e6e6" />
    <circle cx="54.91262" cy="53.5" r="24" fill="#fff" />
    <path id="a708a452-d00d-497b-991d-80b2d0d981ef" data-name="Path 40"
        d="M267.95719,156.35589a5.94683,5.94683,0,0,0,0,11.89205H417.04292a5.94683,5.94683,0,0,0,.19525-11.89205q-.09764-.00165-.19525,0Z"
        transform="translate(-170 -121.80191)" fill="#fff" />
    <path id="ef9045bc-17c8-4d9b-b334-2c1b5c7fd224" data-name="Path 40"
        d="M267.95719,182.35589a5.94683,5.94683,0,0,0,0,11.89205H513.04292a5.94683,5.94683,0,0,0,.19525-11.89205q-.09763-.00165-.19525,0Z"
        transform="translate(-170 -121.80191)" fill="#fff" />
    <circle cx="719.48365" cy="189.06422" r="28.06422" fill="#2f2e41" />
    <circle cx="672.70996" cy="222.474" r="33.40978" fill="#2f2e41" />
    <path d="M804.19325,631.83764,820.58,660.8295s21.42877-21.42877,10.08413-27.10109l-17.64722-5.67232Z"
        transform="translate(-170 -121.80191)" fill="#ffb8b8" />
    <polygon points="663.185 587.557 658.143 608.986 673.269 614.028 678.311 589.448 663.185 587.557" fill="#ffb8b8" />
    <path
        d="M801.64535,493.08587l-3.24849,33.15132S739.907,580.1565,760.0752,600.32475s45.37856,36.55495,45.37856,36.55495l11.34464-8.19335-25.84057-35.29444,52.3114-37.18521-11.9749,155.67368,18.27748,5.04207L890.53857,559.358s12.60516-50.42063-18.27748-75.63094Z"
        transform="translate(-170 -121.80191)" fill="#2f2e41" />
    <path
        d="M838.85743,730.15786s-9.45387-11.9749-13.86567-1.26051a149.73883,149.73883,0,0,0-6.93284,22.68928s-16.3867,24.58005,8.82361,21.42876,17.64722-14.49593,17.64722-14.49593a8.44,8.44,0,0,0,3.78155-8.19335c-.63026-5.67232-3.78155-18.90773-3.78155-18.90773S841.37846,725.74606,838.85743,730.15786Z"
        transform="translate(-170 -121.80191)" fill="#2f2e41" />
    <path
        d="M812.70173,647.90921s-5.35719,5.3572,3.46642,14.1808c0,0,1.26051,24.58006,12.60515,22.059s15.12619-33.40367,13.86568-36.555,1.89077-26.47082-5.67232-25.84057-17.017,8.82361-17.017,8.82361,16.38671,15.12619.63026,25.21032C820.58,655.78744,816.48328,654.21179,812.70173,647.90921Z"
        transform="translate(-170 -121.80191)" fill="#2f2e41" />
    <path
        d="M859.65594,404.31456l-47.8996,1.26052c10.55544-14.97955,12.54223-32.65052,8.19335-52.3114l31.5129,6.30257C845.39405,375.61217,845.28941,389.37587,859.65594,404.31456Z"
        transform="translate(-170 -121.80191)" fill="#ffb8b8" />
    <path
        d="M874.78213,485.61782,800.4117,506.41633l-14.27287-98.32618a18.92866,18.92866,0,0,1,16.718-17.55979l17.09283-1.97225,30.88264,3.15129,14.60649,4.12793a18.859,18.859,0,0,1,13.711,18.999Z"
        transform="translate(-170 -121.80191)" fill="#fe8b4c" />
    <path
        d="M803.563,487.50859l-11.9749,13.86568-28.99186-30.88264,10.77845-53.44315a32.75337,32.75337,0,0,1,25.94689-25.69354l8.023-1.53631L789.69732,461.668Z"
        transform="translate(-170 -121.80191)" fill="#fe8b4c" />
    <path
        d="M802.96893,506.99835l-8.85981-11.92666,7.5631-7.5631,12.28409,3.20455a10.41291,10.41291,0,0,1,5.05658,17.102l0,0A10.41292,10.41292,0,0,1,802.96893,506.99835Z"
        transform="translate(-170 -121.80191)" fill="#ffb8b8" />
    <path
        d="M861.54671,491.29014l11.9749,13.86567,28.99186-30.88263L891.735,420.83a32.75335,32.75335,0,0,0-25.94689-25.69354l-8.023-1.53631,17.64722,71.84939Z"
        transform="translate(-170 -121.80191)" fill="#fe8b4c" />
    <path
        d="M862.14077,510.7799l8.85981-11.92666-7.5631-7.5631-12.28408,3.20455a10.41291,10.41291,0,0,0-5.05659,17.102l0,0A10.41291,10.41291,0,0,0,862.14077,510.7799Z"
        transform="translate(-170 -121.80191)" fill="#ffb8b8" />
    <circle cx="668.0907" cy="225.17656" r="21.88037" fill="#ffb8b8" />
    <path d="M814.64574,344.94411h37.419l11.35932-15.3685c-11.17531-9.78174-25.1619-11.53509-40.75993-8.68655Z"
        transform="translate(-170 -121.80191)" fill="#2f2e41" />
    <path
        d="M997.4833,697.18894a239.22682,239.22682,0,0,1-11.17491,66.1299c-.15569.49682-.31885.98621-.482,1.48307H944.12257c.04449-.445.089-.94176.13352-1.48307,2.78074-31.96752,18.81268-226.53089-.356-259.80351C945.576,506.21452,1000.71637,595.61373,997.4833,697.18894Z"
        transform="translate(-170 -121.80191)" fill="#e6e6e6" />
    <path
        d="M994.35405,763.31884c-.34854.49682-.71189.99363-1.08266,1.48307H961.98612c.23729-.42268.51166-.91949.83051-1.48307,5.16851-9.32849,20.46629-37.21754,34.66667-66.1299,15.26076-31.07025,29.2609-63.31951,28.08185-74.99123C1025.92849,624.83014,1036.48791,705.07882,994.35405,763.31884Z"
        transform="translate(-170 -121.80191)" fill="#e6e6e6" />
    <path
        d="M701.98225,730.48263a121.42776,121.42776,0,0,0,5.6722,33.5665c.079.25217.16185.50058.24464.75278h21.16822c-.02258-.22585-.04519-.478-.06777-.75278-1.41146-16.22621-9.549-114.98352.18068-131.87218C728.32958,633.547,700.34119,678.92465,701.98225,730.48263Z"
        transform="translate(-170 -121.80191)" fill="#e6e6e6" />
    <path
        d="M703.5706,764.04913c.17692.25217.36135.50435.54954.75278h15.87992c-.12045-.21455-.25971-.46672-.42156-.75278-2.62345-4.735-10.38837-18.891-17.59625-33.5665-7.74613-15.77077-14.85238-32.14-14.25391-38.06437C687.54391,693.75444,682.18412,734.48741,703.5706,764.04913Z"
        transform="translate(-170 -121.80191)" fill="#e6e6e6" /></svg>